<svg width="20" height="20" viewBox="0 0 20 20" fill="none" xmlns="http://www.w3.org/2000/svg">
<path d="M17.192 2H17.942C17.942 1.58579 17.6062 1.25 17.192 1.25V2ZM2.792 2V1.25C2.37779 1.25 2.042 1.58579 2.042 2H2.792ZM2.792 11.68H2.04199L2.04201 11.6839L2.792 11.68ZM2 1.25C1.58579 1.25 1.25 1.58579 1.25 2C1.25 2.41421 1.58579 2.75 2 2.75V1.25ZM18 2.75C18.4142 2.75 18.75 2.41421 18.75 2C18.75 1.58579 18.4142 1.25 18 1.25V2.75ZM6.46459 17.3292C6.09411 17.5144 5.94394 17.9649 6.12918 18.3354C6.31442 18.7059 6.76493 18.8561 7.13541 18.6708L6.46459 17.3292ZM10.75 14C10.75 13.5858 10.4142 13.25 10 13.25C9.58579 13.25 9.25 13.5858 9.25 14H10.75ZM12.8646 18.6708C13.2351 18.8561 13.6856 18.7059 13.8708 18.3354C14.0561 17.9649 13.9059 17.5144 13.5354 17.3292L12.8646 18.6708ZM10.1212 5.92L9.74544 6.56907L9.74642 6.56964L10.1212 5.92ZM11.7852 6.88L12.161 6.23093L12.16 6.23036L11.7852 6.88ZM11.7852 9.12L12.16 9.76964L12.161 9.76907L11.7852 9.12ZM10.1212 10.08L9.74642 9.43036L9.74544 9.43093L10.1212 10.08ZM5.12 14.75H14.872V13.25H5.12V14.75ZM14.872 14.75C15.7574 14.75 16.557 14.5156 17.1323 13.9403C17.7076 13.365 17.942 12.5654 17.942 11.68H16.442C16.442 12.3146 16.2764 12.675 16.0717 12.8797C15.867 13.0844 15.5066 13.25 14.872 13.25V14.75ZM17.942 11.68V2H16.442V11.68H17.942ZM17.192 1.25H2.792V2.75H17.192V1.25ZM2.042 2V11.68H3.542V2H2.042ZM2.04201 11.6839C2.04667 12.5686 2.28375 13.3669 2.85935 13.941C3.43529 14.5155 4.23433 14.75 5.12 14.75V13.25C4.48567 13.25 4.12471 13.0845 3.91865 12.879C3.71225 12.6731 3.54533 12.3114 3.54199 11.6761L2.04201 11.6839ZM2 2.75H18V1.25H2V2.75ZM7.13541 18.6708L10.3354 17.0708L9.66459 15.7292L6.46459 17.3292L7.13541 18.6708ZM10.75 16.4V14H9.25V16.4H10.75ZM13.5354 17.3292L10.3354 15.7292L9.66459 17.0708L12.8646 18.6708L13.5354 17.3292ZM8.93521 7.04C8.93521 6.58423 9.09053 6.45889 9.1297 6.43624C9.16832 6.4139 9.35289 6.34181 9.74544 6.56907L10.497 5.27093C9.82553 4.88219 9.0421 4.7541 8.37873 5.13776C7.7159 5.52111 7.43521 6.26377 7.43521 7.04H8.93521ZM11.4094 7.52907C11.8019 7.75628 11.8332 7.95326 11.8332 8C11.8332 8.04674 11.8019 8.24372 11.4094 8.47093L12.161 9.76907C12.8325 9.38028 13.3332 8.76526 13.3332 8C13.3332 7.23474 12.8325 6.61972 12.161 6.23093L11.4094 7.52907ZM9.74544 9.43093C9.35289 9.65819 9.16832 9.5861 9.1297 9.56376C9.09053 9.54111 8.93521 9.41577 8.93521 8.96H7.43521C7.43521 9.73623 7.7159 10.4789 8.37873 10.8622C9.0421 11.2459 9.82553 11.1178 10.497 10.7291L9.74544 9.43093ZM8.93521 8.96V7.04H7.43521V8.96H8.93521ZM9.74642 6.56964L11.4104 7.52964L12.16 6.23036L10.496 5.27036L9.74642 6.56964ZM11.4104 8.47036L9.74642 9.43036L10.496 10.7296L12.16 9.76964L11.4104 8.47036Z" fill="white"/>
</svg>
