<svg width="18" height="14" viewBox="0 0 18 14" fill="none" xmlns="http://www.w3.org/2000/svg">
<path d="M5 6.98887C5.70724 6.98887 6.38552 6.67339 6.88562 6.11182C7.38572 5.55026 7.66667 4.78861 7.66667 3.99444C7.66667 3.20026 7.38572 2.43862 6.88562 1.87705C6.38552 1.31548 5.70724 1 5 1H1V12.9777H5C5.70724 12.9777 6.38552 12.6623 6.88562 12.1007C7.38572 11.5391 7.66667 10.7775 7.66667 9.98331C7.66667 9.18914 7.38572 8.42749 6.88562 7.86592C6.38552 7.30436 5.70724 6.98887 5 6.98887ZM5 6.98887H1M10.7778 7.98702H17C17 7.06048 16.6722 6.1719 16.0888 5.51674C15.5053 4.86158 14.714 4.49351 13.8889 4.49351C13.0638 4.49351 12.2724 4.86158 11.689 5.51674C11.1056 6.1719 10.7778 7.06048 10.7778 7.98702ZM10.7778 7.98702V9.98331C10.8695 10.7306 11.1741 11.4245 11.6461 11.9612C12.1181 12.4979 12.7322 12.8487 13.3965 12.961C14.0607 13.0734 14.7395 12.9413 15.3314 12.5844C15.9233 12.2276 16.3964 11.6653 16.68 10.9815M12.5556 1H15.2222" stroke="white" stroke-width="1.5" stroke-linecap="round" stroke-linejoin="round"/>
</svg>
