<svg width="20" height="20" viewBox="0 0 20 20" fill="none" xmlns="http://www.w3.org/2000/svg">
<path d="M10.424 17H5.368C2.84 17 2 15.3789 2 13.75V7.25C2 4.81057 2.84 4 5.368 4H10.424C12.952 4 13.792 4.81057 13.792 7.25V13.75C13.792 16.1894 12.944 17 10.424 17Z" stroke="white" stroke-width="1.5" stroke-linecap="round" stroke-linejoin="round"/>
<path d="M16.016 14.4371L13.792 12.9317V8.06057L16.016 6.55523C17.104 5.82185 18 6.2696 18 7.55879V13.4412C18 14.7304 17.104 15.1781 16.016 14.4371Z" stroke="white" stroke-width="1.5" stroke-linecap="round" stroke-linejoin="round"/>
<path d="M9.6 9.72803C9.91826 9.72803 10.2235 9.60603 10.4485 9.38887C10.6736 9.17171 10.8 8.87718 10.8 8.57007C10.8 8.26296 10.6736 7.96843 10.4485 7.75127C10.2235 7.53411 9.91826 7.41211 9.6 7.41211C9.28174 7.41211 8.97652 7.53411 8.75147 7.75127C8.52643 7.96843 8.4 8.26296 8.4 8.57007C8.4 8.87718 8.52643 9.17171 8.75147 9.38887C8.97652 9.60603 9.28174 9.72803 9.6 9.72803Z" stroke="white" stroke-width="1.5" stroke-linecap="round" stroke-linejoin="round"/>
</svg>
